<?xml version="1.0" encoding="UTF-8" standalone="no" ?>
<!DOCTYPE svg PUBLIC "-//W3C//DTD SVG 1.1//EN" "http://www.w3.org/Graphics/SVG/1.1/DTD/svg11.dtd">
<svg xmlns="http://www.w3.org/2000/svg" xmlns:xlink="http://www.w3.org/1999/xlink" version="1.1" width="800" height="800" viewBox="0 0 800 800" xml:space="preserve">
<desc>Created with Fabric.js 5.3.0</desc>
<defs>
</defs>
<g transform="matrix(1.5625 0 0 1.5625 400 400)" id="XygW6ItYht0AldoTjhG8U"  >
<path style="stroke: none; stroke-width: 1; stroke-dasharray: none; stroke-linecap: butt; stroke-dashoffset: 0; stroke-linejoin: miter; stroke-miterlimit: 4; fill: rgb(215,215,215); fill-rule: nonzero; opacity: 1;"  transform=" translate(-256, -256)" d="M 120.16 45 C 109.02639691629608 45.00110435978435 100.00110435978434 54.02639691629609 100 65.16000000000001 L 100 446.84000000000003 C 100.00110435978436 457.97360308370395 109.0263969162961 466.99889564021566 120.16 467 L 185.84 467 C 196.97360308370392 466.99889564021566 205.99889564021566 457.9736030837039 206 446.84 L 206 65.16 C 205.99889564021564 54.02639691629608 196.9736030837039 45.001104359784335 185.83999999999997 45 L 120.16 45 z M 326.15999999999997 45 C 315.02639691629605 45.00110435978437 306.00110435978434 54.026396916296115 306 65.16000000000001 L 306 446.84000000000003 C 306.00110435978434 457.97360308370395 315.0263969162961 466.99889564021566 326.16 467 L 391.84000000000003 467 C 402.97360308370395 466.99889564021566 411.99889564021566 457.9736030837039 412 446.84 L 412 65.16 C 411.99889564021566 54.02639691629608 402.9736030837039 45.00110435978433 391.84 45 L 326.15999999999997 45 z" stroke-linecap="round" />
</g>
</svg>