<?xml version="1.0" encoding="UTF-8" standalone="no" ?>
<!DOCTYPE svg PUBLIC "-//W3C//DTD SVG 1.1//EN" "http://www.w3.org/Graphics/SVG/1.1/DTD/svg11.dtd">
<svg xmlns="http://www.w3.org/2000/svg" xmlns:xlink="http://www.w3.org/1999/xlink" version="1.1" width="800" height="800" viewBox="0 0 800 800" xml:space="preserve">
<desc>Created with Fabric.js 5.3.0</desc>
<defs>
</defs>
<g transform="matrix(33.3333333333 0 0 33.3333333333 400 400)" id="5Io10PWaAYIX4om8T_gPR"  >
<path style="stroke: rgb(215,215,215); stroke-width: 2; stroke-dasharray: none; stroke-linecap: butt; stroke-dashoffset: 0; stroke-linejoin: round; stroke-miterlimit: 4; fill: none; fill-rule: nonzero; opacity: 1;"  transform=" translate(-12.1132, -11.9999567437)" d="M 16.6582 9.28638 C 18.098 10.1862 18.8178 10.6361 19.0647 11.2122 C 19.2803 11.7152 19.2803 12.2847 19.0647 12.7878 C 18.8178 13.3638 18.098 13.8137 16.6582 14.7136 L 9.896 18.94 C 8.29805 19.9387 7.49907 20.4381 6.83973 20.385 C 6.26501 20.3388 5.73818 20.0469 5.3944 19.584 C 5 19.053 5 18.1108 5 16.2264 L 5 7.77357 C 5 5.88919 5 4.94701 5.3944 4.41598 C 5.73818 3.9531 6.26501 3.66111 6.83973 3.6149 C 7.49907 3.5619 8.29805 4.06126 9.896 5.05998 L 16.6582 9.28638 Z" stroke-linecap="round" />
</g>
</svg>